<svg xmlns="http://www.w3.org/2000/svg" width="47.463" height="47.468" viewBox="0 0 47.463 47.468"><defs><style>.a{fill:#ff6505;}</style></defs><g transform="translate(-300)"><g transform="translate(300)"><path class="a" d="M343.514,4.453h-6.427V1.486a1.486,1.486,0,1,0-2.971,0V4.453h-8.9V1.486a1.486,1.486,0,1,0-2.971,0V4.453h-8.9V1.486a1.486,1.486,0,0,0-2.972,0V4.453h-6.427A3.954,3.954,0,0,0,300,8.407V43.514a3.954,3.954,0,0,0,3.954,3.954h39.555a3.954,3.954,0,0,0,3.954-3.954V8.407A3.944,3.944,0,0,0,343.514,4.453Zm.987,39.061a.987.987,0,0,1-.987.987h-39.56a.987.987,0,0,1-.987-.987V8.407a.987.987,0,0,1,.987-.987h6.427v2.967a1.486,1.486,0,1,0,2.971,0V7.419h8.9v2.967a1.486,1.486,0,1,0,2.971,0V7.419h8.9v2.967a1.486,1.486,0,1,0,2.971,0V7.419h6.427a.987.987,0,0,1,.987.987V43.514Z" transform="translate(-300)"/><rect class="a" width="5.934" height="4.453" transform="translate(10.386 17.801)"/><rect class="a" width="5.934" height="4.453" transform="translate(10.386 25.22)"/><rect class="a" width="5.934" height="4.453" transform="translate(10.386 32.634)"/><rect class="a" width="5.934" height="4.453" transform="translate(20.767 32.634)"/><rect class="a" width="5.934" height="4.453" transform="translate(20.767 25.22)"/><rect class="a" width="5.934" height="4.453" transform="translate(20.767 17.801)"/><rect class="a" width="5.934" height="4.453" transform="translate(31.153 32.634)"/><rect class="a" width="5.934" height="4.453" transform="translate(31.153 25.22)"/><rect class="a" width="5.934" height="4.453" transform="translate(31.153 17.801)"/></g></g></svg>