<svg xmlns="http://www.w3.org/2000/svg" width="52.742" height="47.468" viewBox="0 0 52.742 47.468"><defs><style>.a{fill:#ff6505;}</style></defs><g transform="translate(-16 -40)"><path class="a" d="M137.316,57.758a20.182,20.182,0,0,1,13.478,5.148l1.172-1.31a21.977,21.977,0,0,0-29.3,0l1.172,1.31a20.182,20.182,0,0,1,13.478-5.148Z" transform="translate(-94.945 -14.242)"/><path class="a" d="M122.482,384.546a20.235,20.235,0,0,1-15.163-6.846L106,378.863a21.977,21.977,0,0,0,32.964,0l-1.319-1.163A20.235,20.235,0,0,1,122.482,384.546Z" transform="translate(-80.111 -300.594)"/><path class="a" d="M135.439,118.209a15.1,15.1,0,0,1,.207,2.492,14.891,14.891,0,0,1-.686,4.479,3.557,3.557,0,0,0-1.189-.963,16.246,16.246,0,0,0-3.711-1.339,8.793,8.793,0,0,0-9.849-14.4,3.954,3.954,0,0,0-6.334,1.725,3.956,3.956,0,0,0-4.3,5.42l-.158.082a3.1,3.1,0,0,0-2.039,2.8,5.128,5.128,0,0,1-.148.694,4.792,4.792,0,0,1-.277.615,3.157,3.157,0,0,0,0,3.524,4.779,4.779,0,0,1,.277.615,5.128,5.128,0,0,1,.148.694,3.1,3.1,0,0,0,2.039,2.8,4.984,4.984,0,0,1,.608.35,4.92,4.92,0,0,1,.511.463,3.094,3.094,0,0,0,3.287,1.081,3.521,3.521,0,0,1,1.447,0l.155.023a2.882,2.882,0,0,0-.354.863,2.226,2.226,0,0,0,.383,1.89,3.025,3.025,0,0,0,3.762.67,11.12,11.12,0,0,1,10,0q.075.037.151.071a14.94,14.94,0,1,1,.389-24.05,15.053,15.053,0,0,1,5.3,7.734l1.689-.487a16.823,16.823,0,0,0-5.923-8.644A16.55,16.55,0,0,0,120.7,104a16.7,16.7,0,1,0,11.528,28.776,2.555,2.555,0,0,0,.748-.651,2.108,2.108,0,0,0,.226-.36,16.634,16.634,0,0,0,4.2-11.064,16.867,16.867,0,0,0-.231-2.785Zm-1.617,8.541a.53.53,0,0,1-.059.429,1.314,1.314,0,0,1-1.58.174,12.89,12.89,0,0,0-8.877-1h-.016v0a12.729,12.729,0,0,0-2.685,1,1.314,1.314,0,0,1-1.584-.175.53.53,0,0,1-.057-.427,1.54,1.54,0,0,1,.844-.965,14.645,14.645,0,0,1,13.171,0A1.541,1.541,0,0,1,133.821,126.751Zm-2.571-10.445a7.012,7.012,0,0,1-3.708,6.2,16.46,16.46,0,0,0-5.22.471,3.255,3.255,0,0,0,.358-1.4,3.858,3.858,0,0,0-.538-1.762,4.778,4.778,0,0,1-.277-.615,3.17,3.17,0,0,1-.091-.371,3.515,3.515,0,1,0-1.073-2.526v.041a5.352,5.352,0,0,0-1.024-.639,4.994,4.994,0,0,1-.608-.35c-.056-.041-.114-.089-.173-.14a3.956,3.956,0,0,0,2.367-5.3,6.954,6.954,0,0,1,2.953-.648A7.04,7.04,0,0,1,131.25,116.306Zm-8.79,0a1.758,1.758,0,1,1,1.758,1.758,1.758,1.758,0,0,1-1.758-1.758Zm-4.835-7.032a2.2,2.2,0,1,1-2.2,2.2A2.2,2.2,0,0,1,117.625,109.274Zm-4.4,2.637a2.21,2.21,0,0,1,.47.05,3.959,3.959,0,0,0,1.646,2.742,2.2,2.2,0,1,1-2.116-2.792Zm1.319,15.6a6.592,6.592,0,0,0-.981.094,1.469,1.469,0,0,1-1.793-.592,6.24,6.24,0,0,0-.712-.634,6.34,6.34,0,0,0-.831-.489,1.48,1.48,0,0,1-1.117-1.534,6.492,6.492,0,0,0-.21-.945,6.119,6.119,0,0,0-.378-.862,1.524,1.524,0,0,1,0-1.944,6.1,6.1,0,0,0,.378-.862,6.488,6.488,0,0,0,.21-.945,1.48,1.48,0,0,1,1.117-1.534c.124-.065.25-.13.376-.2a3.953,3.953,0,0,0,6.241-1.36,5.715,5.715,0,0,1,.475.437,6.259,6.259,0,0,0,.712.634,6.346,6.346,0,0,0,.831.489,1.48,1.48,0,0,1,1.117,1.534,6.492,6.492,0,0,0,.21.945,6.12,6.12,0,0,0,.378.862,1.525,1.525,0,0,1,0,1.945,6.106,6.106,0,0,0-.378.862c-.031.094-.058.192-.084.3q-.555.231-1.095.5a3.3,3.3,0,0,0-1.766,2.148,2.483,2.483,0,0,0-.053.778,2.028,2.028,0,0,1-.676.5,2.539,2.539,0,0,1-.989-.035A6.593,6.593,0,0,0,114.548,127.514Zm15.462,3.71a12.881,12.881,0,0,0-11.581,0,1.313,1.313,0,0,1-1.583-.176.53.53,0,0,1-.057-.427,1.54,1.54,0,0,1,.844-.965c.389-.2.79-.377,1.2-.539a3.288,3.288,0,0,0,2.563-.191,11,11,0,0,1,2.176-.824,14.7,14.7,0,0,1,1.478.009,14.5,14.5,0,0,1,5.756,1.545,1.54,1.54,0,0,1,.843.965.723.723,0,0,1,.016.229q-.223.241-.456.472a1.54,1.54,0,0,1-1.2-.1Z" transform="translate(-78.331 -56.967)"/><path class="a" d="M408.79,40v8.79h-2.637V40H404.4v8.79h-2.637V40H400V54.5a3.082,3.082,0,0,0,2.558,3.033l-.794,26.215c0,.066-.006.133-.006.2a3.516,3.516,0,0,0,7.032,0c0-.067,0-.134-.006-.2l-.181-5.98-1.757.053.182,5.992c0,.009,0,.018,0,.026,0,.036,0,.072,0,.108a1.758,1.758,0,0,1-3.516,0c0-.036,0-.072,0-.108,0-.009,0-.018,0-.026l.795-26.237h1.917l.56,18.486,1.757-.053-.56-18.477a3.082,3.082,0,0,0,2.559-3.033V40Zm0,14.5a1.32,1.32,0,0,1-1.319,1.319h-4.4a1.32,1.32,0,0,1-1.319-1.319V50.548h7.032Z" transform="translate(-341.806)"/><path class="a" d="M23.961,56.563C25.664,55.1,26.8,52.2,26.8,48.79c0-4.929-2.372-8.79-5.4-8.79S16,43.861,16,48.79c0,3.245,1.028,6.027,2.594,7.55l-.2,6.488,1.757.053.166-5.469a3.539,3.539,0,0,0,1.909.069l.8,26.335c0,.009,0,.018,0,.026,0,.036,0,.072,0,.108a1.758,1.758,0,0,1-3.516,0c0-.036,0-.072,0-.108,0-.009,0-.018,0-.026L20.1,64.64l-1.757-.053-.581,19.166c0,.066-.006.133-.006.2a3.516,3.516,0,0,0,7.032,0c0-.067,0-.134-.006-.2Zm-6.2-7.773c0-4.207,1.883-7.032,3.642-7.032s3.642,2.826,3.642,7.032-1.883,7.032-3.642,7.032S17.758,53,17.758,48.79Z" transform="translate(0 0)"/><rect class="a" width="2.78" height="1.758" transform="translate(31.868 65.214) rotate(-71.566)"/><rect class="a" width="2.78" height="1.758" transform="matrix(0.949, -0.316, 0.316, 0.949, 35.061, 67.295)"/><rect class="a" width="1.758" height="3.169" transform="matrix(0.555, -0.832, 0.832, 0.555, 36.609, 63.586)"/></g></svg>