<svg xmlns="http://www.w3.org/2000/svg" width="47.768" height="47.768" viewBox="0 0 47.768 47.768"><defs><style>.a{fill:#ff6505;stroke:#ff6505;stroke-width:0.3px;}</style></defs><g transform="translate(-29.85 -762.85)"><g transform="translate(30 763)"><path class="a" d="M56.955,72.366A15.411,15.411,0,1,0,72.366,56.954,15.429,15.429,0,0,0,56.955,72.366Zm28.631,0a13.219,13.219,0,1,1-13.219-13.22A13.234,13.234,0,0,1,85.586,72.366Z" transform="translate(-48.632 -48.632)"/><path class="a" d="M133.319,103.325v1.717a4.672,4.672,0,0,0-1.734.806,3.852,3.852,0,0,0-1.762,4.01,3.707,3.707,0,0,0,3.263,2.607c3.774.529,4.388,1.092,4.227,2.414a1.784,1.784,0,0,1-1.2,1.5,5.543,5.543,0,0,1-5.243-1.285l-1.373,1.709a9.162,9.162,0,0,0,3.825,1.849V120.6h2.192v-1.831a5.431,5.431,0,0,0,1.424-.357,3.987,3.987,0,0,0,2.554-3.263,3.512,3.512,0,0,0-1.915-3.779,12.926,12.926,0,0,0-4.183-1.072,1.573,1.573,0,0,1-1.443-.975c-.136-.535.215-1.174.939-1.708a2.777,2.777,0,0,1,2.761-.255,6.074,6.074,0,0,1,1.615.9l.7-.842.7-.839a8.09,8.09,0,0,0-2.206-1.254,6.638,6.638,0,0,0-.953-.278v-1.718Z" transform="translate(-110.572 -88.227)"/><path class="a" d="M23.734,2.192a21.384,21.384,0,0,1,12.9,4.288H33.755V8.672h7.053V1.619H38.616V5.243A23.736,23.736,0,0,0,0,23.734H2.192A21.567,21.567,0,0,1,23.734,2.192Z"/><path class="a" d="M85.821,162.421a21.546,21.546,0,0,1-34.146,17.474h2.862V177.7H47.483v7.053h2.192v-3.624a23.735,23.735,0,0,0,38.338-18.711Z" transform="translate(-40.544 -138.687)"/></g></g></svg>