<svg xmlns="http://www.w3.org/2000/svg" width="70" height="70" viewBox="0 0 70 70"><defs><style>.a{fill:#fff;stroke:#ffba00;stroke-width:3px;}.b{opacity:0.146;}.c{opacity:0.257;}.d{font-size:5px;font-family:SFProText-Semibold, SF Pro Text;font-weight:600;letter-spacing:-0.024em;}.e{stroke:none;}.f{fill:none;}</style></defs><g transform="translate(-62 -526)"><g class="a" transform="translate(62 526)"><circle class="e" cx="35" cy="35" r="35"/><circle class="f" cx="35" cy="35" r="33.5"/></g><g transform="translate(73 546)"><g class="b" transform="translate(0 0)"><g transform="translate(0 0)"><path d="M47.46,106.988l1.189-.2V96H0v10.788l1.189.2a4.275,4.275,0,0,1,0,8.43l-1.189.2v10.788H48.649V115.618l-1.189-.2a4.275,4.275,0,0,1,0-8.43ZM45.8,117.924v5.631H35.347v-2.328H32.5v2.328H2.851v-5.631a7.13,7.13,0,0,0,0-13.442V98.851H32.5v2.328h2.851V98.851H45.8v5.631a7.13,7.13,0,0,0,0,13.442Z" transform="translate(0 -96)"/></g></g><g class="c" transform="translate(32.496 16.676)"><g transform="translate(0 0)"><rect width="2.851" height="5.701"/></g></g><g class="c" transform="translate(32.496 8.029)"><g transform="translate(0 0)"><rect width="2.851" height="5.701"/></g></g></g><text class="d" transform="translate(79 554)"><tspan x="9.211" y="5">NO </tspan><tspan x="-0.016" y="13">DISCOUNT</tspan></text></g></svg>