<svg xmlns="http://www.w3.org/2000/svg" width="200.352" height="217.363" viewBox="0 0 200.352 217.363"><defs><style>.a{fill:#f5f5f5;}.b{fill:#e0e0e0;}.c{fill:#ef4651;}.d,.g{fill:#fff;}.e{fill:#fe97a0;}.f{fill:#ba68c8;}.g{opacity:0.4;}.h{opacity:0.1;}.i{fill:#ff747d;}.j{fill:#455a64;}.k{fill:#263238;}.l{fill:#ff6505;}.m{fill:#ebebeb;}.n{fill:#ffa8a7;}.o{fill:#37474f;}.p{fill:#f28f8f;}</style></defs><g transform="translate(-971 -263)"><g transform="translate(971 263)"><g transform="translate(0 111.773)"><path class="a" d="M73.646,346.506c39.12,20.621,102.545,20.621,141.665,0s39.124-54.045,0-74.661-102.545-20.621-141.669,0S34.521,325.875,73.646,346.506Z" transform="translate(-44.3 -256.381)"/></g><g transform="translate(12.136 126.204)"><path class="b" d="M69.729,335.99l1.816,1.044a2.326,2.326,0,0,0,2.1,0l83.91-48.442a.636.636,0,0,0,0-1.209l-1.8-1.029a2.326,2.326,0,0,0-2.1,0L69.729,334.776a.641.641,0,0,0,0,1.214Z" transform="translate(-69.294 -286.103)"/><ellipse class="b" cx="19.756" cy="10.832" rx="19.756" ry="10.832" transform="translate(96.015 17.456)"/></g><g transform="translate(139.358 127.196)"><path class="c" d="M400.51,284.643c-.029-2.481,1.7-7.637,4.239-10.891s6.55-5.656,9.439-4.7c2.69.884,2.428,4.4-.782,6.763s-8.065,5.341-9.449,9.39l-2.937,4.972Z" transform="translate(-400.181 -268.837)"/><path class="d" d="M400.021,289.825a.184.184,0,0,0,.16-.151c1.559-8.487,8.327-15.45,12.405-17.018a.185.185,0,0,0,.107-.238.179.179,0,0,0-.233-.1c-4.161,1.6-11.056,8.676-12.624,17.295a.18.18,0,0,0,.146.209Z" transform="translate(-399.834 -270.621)"/><path class="e" d="M402.347,304.779c.384-1.4,2.059-3.719,4.787-5.656,3.025-2.136,6.87-3.151,7.739-4.8,1.044-1.981-.636-3.816-3.763-3.4s-8.575,4.763-9.381,11.2Z" transform="translate(-400.809 -280.171)"/><path class="d" d="M401.459,305.138a.184.184,0,0,0,.155-.121c2.505-7.283,8.011-9.9,10.57-10.259a.185.185,0,0,0,.155-.2.18.18,0,0,0-.2-.155c-2.831.4-8.3,3.064-10.866,10.5a.18.18,0,0,0,.112.228A.146.146,0,0,0,401.459,305.138Z" transform="translate(-400.568 -281.986)"/></g><g transform="translate(13.41 0)"><g transform="translate(0)"><path class="f" d="M163.873,451.357,83.706,497.638S164.5,450.946,163.873,451.357Z" transform="translate(-80.147 -322.77)"/><path class="g" d="M157.023,28.323c-.073-.554-.52-.757-1.054-.452L75.793,74.158a2.2,2.2,0,0,0-.753.8L72.54,73.5a2.233,2.233,0,0,1,.757-.8L153.464,26.43a2.365,2.365,0,0,1,2.136,0l.369.214A2.428,2.428,0,0,1,157.023,28.323Z" transform="translate(-72.239 -26.175)"/><path class="h" d="M75.3,251.283a2.375,2.375,0,0,1-1.942-.083l-.374-.214a2.355,2.355,0,0,1-1.063-1.85V124.719a2.146,2.146,0,0,1,.311-1.049l2.5,1.457a2.238,2.238,0,0,0-.345,1.034V250.584C74.387,251.2,74.794,251.482,75.3,251.283Z" transform="translate(-71.92 -76.333)"/></g><g transform="translate(10.507 10.585)"><g transform="translate(0 50.68)"><path class="e" d="M95,220.974l-.369-.214a2.36,2.36,0,0,1-1.068-1.845V196.552a2.369,2.369,0,0,1,1.068-1.85l72.787-42.062a2.355,2.355,0,0,1,2.131,0l.369.214a2.355,2.355,0,0,1,1.068,1.85v22.364a2.345,2.345,0,0,1-1.068,1.845L97.134,220.974a2.365,2.365,0,0,1-2.136,0Z" transform="translate(-93.56 -152.37)"/><path class="i" d="M171.308,154.518c-.073-.554-.52-.757-1.058-.452L97.463,196.133a2.2,2.2,0,0,0-.753.8l-2.5-1.457a2.19,2.19,0,0,1,.757-.8l72.782-42.062a2.355,2.355,0,0,1,2.131,0l.369.214a2.394,2.394,0,0,1,1.058,1.695Z" transform="translate(-93.894 -152.355)"/><path class="i" d="M96.959,266.749a2.364,2.364,0,0,1-1.942-.087l-.379-.209a2.379,2.379,0,0,1-1.058-1.85V242.239a2.146,2.146,0,0,1,.311-1.049l2.5,1.457a2.239,2.239,0,0,0-.316,1.049v22.369C96.071,266.656,96.459,266.943,96.959,266.749Z" transform="translate(-93.57 -198.057)"/><path class="i" d="M114.131,238.321c4.151-2.4,7.516-.534,7.516,4.166s-3.37,10.41-7.526,12.755-7.521.486-7.521-4.166S109.979,240.72,114.131,238.321Z" transform="translate(-100.269 -196.043)"/></g><g transform="translate(0 81.002)"><path class="e" d="M95,283.394l-.369-.214a2.36,2.36,0,0,1-1.068-1.845V258.972a2.369,2.369,0,0,1,1.068-1.85l72.787-42.062a2.355,2.355,0,0,1,2.131,0l.369.214a2.35,2.35,0,0,1,1.068,1.85v22.364a2.345,2.345,0,0,1-1.068,1.845L97.134,283.394a2.364,2.364,0,0,1-2.136,0Z" transform="translate(-93.56 -214.805)"/><path class="i" d="M171.308,216.969c-.073-.553-.52-.753-1.058-.447L97.463,258.589a2.229,2.229,0,0,0-.753.791l-2.5-1.457a2.157,2.157,0,0,1,.757-.762L167.749,215.1a2.355,2.355,0,0,1,2.131,0l.369.214A2.384,2.384,0,0,1,171.308,216.969Z" transform="translate(-93.894 -214.825)"/><path class="i" d="M96.959,329.164a2.364,2.364,0,0,1-1.942-.083l-.379-.214a2.365,2.365,0,0,1-1.058-1.85V304.659a2.131,2.131,0,0,1,.311-1.049l2.5,1.457a2.272,2.272,0,0,0-.316,1.054v22.369C96.071,329.076,96.459,329.363,96.959,329.164Z" transform="translate(-93.57 -260.492)"/><path class="i" d="M114.131,300.741c4.151-2.4,7.516-.534,7.516,4.166s-3.37,10.41-7.526,12.755-7.521.485-7.521-4.166S109.979,303.135,114.131,300.741Z" transform="translate(-100.269 -258.478)"/></g><path class="e" d="M95,116.594l-.369-.214a2.369,2.369,0,0,1-1.068-1.85V92.186a2.36,2.36,0,0,1,1.068-1.845L167.415,48.26a2.355,2.355,0,0,1,2.131,0l.369.214a2.345,2.345,0,0,1,1.068,1.845V72.682a2.355,2.355,0,0,1-1.068,1.85L97.134,116.594A2.364,2.364,0,0,1,95,116.594Z" transform="translate(-93.56 -47.99)"/><path class="i" d="M171.308,50.133c-.073-.554-.52-.753-1.058-.447L97.463,91.753a2.151,2.151,0,0,0-.753.791l-2.5-1.457a2.141,2.141,0,0,1,.757-.8L167.749,48.23a2.355,2.355,0,0,1,2.131,0l.369.214A2.384,2.384,0,0,1,171.308,50.133Z" transform="translate(-93.894 -47.975)"/><path class="i" d="M96.954,162.374a2.365,2.365,0,0,1-1.942-.083l-.379-.214a2.365,2.365,0,0,1-1.063-1.86V137.884a2.146,2.146,0,0,1,.311-1.054l2.5,1.457a2.253,2.253,0,0,0-.316,1.054v22.335C96.066,162.287,96.454,162.568,96.954,162.374Z" transform="translate(-93.565 -93.688)"/><path class="i" d="M114.131,133.941c4.151-2.4,7.516-.534,7.516,4.161s-3.37,10.41-7.526,12.76-7.521.486-7.521-4.166S109.979,136.345,114.131,133.941Z" transform="translate(-100.269 -91.663)"/><g transform="translate(5.118 28.404)"><path class="c" d="M105.537,175.069l-.369-.214a2.355,2.355,0,0,1-1.068-1.85V150.642a2.365,2.365,0,0,1,1.068-1.85L177.95,106.73a2.364,2.364,0,0,1,2.136,0l.369.209a2.374,2.374,0,0,1,1.068,1.85v22.364a2.369,2.369,0,0,1-1.068,1.85l-72.787,42.067a2.355,2.355,0,0,1-2.131,0Z" transform="translate(-104.1 -106.475)"/><path class="j" d="M181.848,108.623c-.073-.554-.52-.757-1.059-.447L108,150.243a2.2,2.2,0,0,0-.757.791l-2.5-1.457a2.181,2.181,0,0,1,.753-.8l72.782-42.047a2.364,2.364,0,0,1,2.136,0l.369.209A2.394,2.394,0,0,1,181.848,108.623Z" transform="translate(-104.434 -106.475)"/><path class="k" d="M107.5,220.839a2.375,2.375,0,0,1-1.942-.083l-.374-.214a2.365,2.365,0,0,1-1.063-1.85V196.329a2.151,2.151,0,0,1,.316-1.049l2.5,1.457a2.229,2.229,0,0,0-.311,1.049v22.369C106.611,220.746,106.975,221.033,107.5,220.839Z" transform="translate(-104.11 -152.162)"/><path class="a" d="M124.671,192.414c4.151-2.394,7.516-.529,7.516,4.166s-3.37,10.41-7.526,12.76-7.526.486-7.521-4.166S120.519,194.813,124.671,192.414Z" transform="translate(-110.809 -150.151)"/><path class="l" d="M128.207,201.569a.816.816,0,0,1-.922.044l-3.3-2.5c-.442-.335-.388-1.253.121-2.059s1.282-1.185,1.719-.85l2.3,1.743,6.395-13.736c.4-.859,1.16-1.457,1.7-1.287s.66.971.257,1.816l-7.3,15.683a2.637,2.637,0,0,1-.937,1.112Z" transform="translate(-114.175 -145.793)"/></g></g></g><g transform="translate(76.778 55.413)"><path class="m" d="M224.892,146.437h0c-.34.194-.612.083-.612-.257v-3.4a1.262,1.262,0,0,1,.612-.971h0c.335-.194.607-.078.607.257v3.4A1.257,1.257,0,0,1,224.892,146.437Z" transform="translate(-213.671 -141.03)"/><path class="m" d="M211.806,160.242h0c-.238.408-.622.631-.859.486l-1.976-1.141c-.238-.136-.238-.583,0-.971h0c.238-.413.621-.636.859-.486l1.976,1.141C212.064,159.383,212.064,159.829,211.806,160.242Z" transform="translate(-205.703 -149.45)"/><path class="m" d="M206.441,176.659v.1a1.35,1.35,0,0,1-.655,1.029l-2.7,1.559c-.359.209-.655.087-.655-.277v-.1a1.364,1.364,0,0,1,.655-1.029l2.7-1.559C206.149,176.173,206.441,176.295,206.441,176.659Z" transform="translate(-202.43 -158.812)"/><path class="m" d="M240.38,157.163v-.1a1.35,1.35,0,0,1,.655-1.034l2.7-1.559c.359-.209.655-.083.655.277v.1a1.364,1.364,0,0,1-.655,1.029l-2.7,1.559C240.681,157.644,240.38,157.522,240.38,157.163Z" transform="translate(-221.954 -147.541)"/><path class="m" d="M235.811,145.205h0c-.238-.136-.238-.578,0-.971l1.976-3.4c.238-.413.621-.636.859-.486h0c.238.141.238.583,0,1l-1.976,3.4C236.452,145.123,236.063,145.346,235.811,145.205Z" transform="translate(-219.512 -140.303)"/></g><g transform="translate(90.369 48.617)"><path class="k" d="M387.748,314.633v-.553a13.423,13.423,0,0,1-2.758,4.855c-1.219,1.112-2.884,2.394-3.307,3.632s2.316,1.724,3.452,1.525a6.954,6.954,0,0,0,3.967-2.131c.656-.806,1.073-1.758,1.539-2.394s1.544-1.335,1.8-2.068a4.742,4.742,0,0,0-.223-2.03c-.194-.743-.374-1.432-.607-1.369v.427a3.068,3.068,0,0,1-1.942.651C389.1,315.177,387.743,315.061,387.748,314.633Z" transform="translate(-349.953 -212.928)"/><path class="n" d="M385.817,316.548c.379-.335.762-.665,1.107-.971a11.209,11.209,0,0,0,2.355-3.763,5.34,5.34,0,0,0,.4-2.034v-2.2h3.884v3.583h0v.1h0c-.185.8-1.942,2.913-2.967,4.331a5.585,5.585,0,0,1-3.491,2.326C385.618,318.111,384.875,317.65,385.817,316.548Z" transform="translate(-351.886 -209.584)"/><path class="k" d="M356.713,306.784v-.554a13.373,13.373,0,0,1-2.763,4.855c-1.219,1.112-2.884,2.4-3.306,3.637s2.316,1.724,3.452,1.52a6.946,6.946,0,0,0,3.967-2.127c.655-.806,1.073-1.763,1.539-2.394s1.549-1.34,1.8-2.073a4.721,4.721,0,0,0-.223-2.025c-.194-.743-.374-1.457-.607-1.374v.422a3.054,3.054,0,0,1-1.942.655C358.077,307.327,356.708,307.216,356.713,306.784Z" transform="translate(-333.984 -208.89)"/><path class="n" d="M354.783,308.7c.374-.34.757-.665,1.1-.971a11.23,11.23,0,0,0,2.355-3.768,5.3,5.3,0,0,0,.408-2.029v-2.2h3.86v3.583h0v.1h0c-.185.806-1.942,2.938-2.967,4.331a5.566,5.566,0,0,1-3.491,2.326C354.579,310.261,353.836,309.8,354.783,308.7Z" transform="translate(-335.918 -205.546)"/><path class="o" d="M379.783,190.547c3,6.54-.112,29.589-.112,29.589.092,1.058,1.306,3.151,1.758,7.822.534,5.521-.84,19.383-.84,19.383a4.175,4.175,0,0,1-3.884.155s-3.68-20.878-4.37-26.365c-.612-4.792-1.787-15.314-1.787-15.314l-3.3,15.294a28.645,28.645,0,0,1,1.044,4.729c.316,3.229-2.816,18.261-2.816,18.261a8.632,8.632,0,0,1-3.86.116s-1.107-19.951-1.4-23.84c-.486-6.53,1.243-26.913,2.428-30.778Z" transform="translate(-338.89 -148.888)"/><path class="k" d="M374.213,213.8l-.971-6.079s-4.117-.85-5.982-2.607a10.623,10.623,0,0,0,4.855,3.234l1.092,4.681L371.3,227.187Z" transform="translate(-342.555 -156.867)"/><path class="n" d="M345.593,144.151a5.55,5.55,0,0,0-4.918,2.2c-1.544,2.02-7.463,9.711-7.463,9.711s-8.74-4.37-9.152-4.885-.185-1.563-.068-2.136.316-1.86.442-2.219c.223-.626-.7-.456-1.253.131s-.787,1.733-1.063,1.942-2.345-2.19-3.355-3.34-1.457-1.942-2.151-1.481c-.486.34-.175,1.024.549,2.01a13.312,13.312,0,0,1,.932,1.311c.083.175-.18.316-.286.413-.194.175-.544.486-.568.733a2.28,2.28,0,0,1-.029.447c-.092.33-.486.486-.612.806a4.027,4.027,0,0,0-.039.733c-.029.155-.117.3-.146.456a1.083,1.083,0,0,0,.325.845,8.079,8.079,0,0,0,2.6,1.68c.772.427,1.568.612,2.457,1.005s11.192,7.54,12.823,6.637,10.051-10.682,10.051-10.682C347.094,146.438,345.593,144.151,345.593,144.151Z" transform="translate(-316.377 -125.4)"/><path class="a" d="M376.667,144.546h0c3.836.267,4.108,2.122,5.069,4.146a6.575,6.575,0,0,1,.18,4.952l-2.685,7.739s1.253,3.03,2.709,5.89c-6.715,3.748-15.1,1.777-17.12-.971-.087-.583.432-5.118.753-8.079-1.185-2.967-1.5-4.855-1-6.8.927-3.642,4.52-7.186,6.113-7.06Z" transform="translate(-341.056 -125.615)"/><path class="k" d="M373.822,121.5h1.491a7.851,7.851,0,0,0,7.851-7.861h0a7.9,7.9,0,0,0-7.895-7.89h-1.4A7.89,7.89,0,0,0,366,113.64h0A7.846,7.846,0,0,0,373.822,121.5Z" transform="translate(-341.906 -105.75)"/><path class="k" d="M405.087,131.271h0a4.642,4.642,0,0,1-4.637-4.637V116.7h0a4.637,4.637,0,0,1,4.637,4.642Z" transform="translate(-359.63 -111.383)"/><path class="k" d="M400.97,113.08l-1.16,1.864a1.068,1.068,0,0,0,1.515-.306A1.16,1.16,0,0,0,400.97,113.08Z" transform="translate(-359.301 -109.521)"/><path class="n" d="M369.72,112.93c-.908.534-2.03,2.816-1.918,7.6.092,4.059,1.408,5.059,2.068,5.341a7.052,7.052,0,0,0,3.171-.1V128.2s-1.709,1.986-1.6,3.1,2.471,1.379,4.074.291a10.443,10.443,0,0,0,2.627-2.753v-5.865a1.549,1.549,0,0,0,2.2.209,2.912,2.912,0,0,0,.626-3.962,1.771,1.771,0,0,0-2.826.563,9.78,9.78,0,0,1-4.6-1.369,7.39,7.39,0,0,1-3.816-5.491Z" transform="translate(-342.829 -109.444)"/><path class="k" d="M378.069,125.975a.51.51,0,1,0,.539-.486.529.529,0,0,0-.539.486Z" transform="translate(-348.115 -115.905)"/><path class="p" d="M375.6,133.58l-1.185.374a.612.612,0,0,0,.767.427A.651.651,0,0,0,375.6,133.58Z" transform="translate(-346.238 -120.068)"/><path class="k" d="M369.35,122.209l1.029-.719a.6.6,0,0,0-.855-.175A.66.66,0,0,0,369.35,122.209Z" transform="translate(-343.577 -113.702)"/><path class="k" d="M370,125.2a.515.515,0,0,0,.486.554A.529.529,0,1,0,370,125.2Z" transform="translate(-343.963 -115.496)"/><path class="p" d="M373.279,125.13,373.2,128.2l-1.617-.5Z" transform="translate(-344.777 -115.72)"/><path class="p" d="M378.6,137.29c1.306-.17,3.991-.942,4.409-2a2.767,2.767,0,0,1-.942,1.355A14.166,14.166,0,0,1,378.6,138.1Z" transform="translate(-348.389 -120.947)"/><path class="h" d="M378.386,173.032a4.054,4.054,0,0,0,3.02-4.948,1.457,1.457,0,0,0-1.427-1.112h0a3.923,3.923,0,0,0,1.68-2.5l.816-4.855a5.6,5.6,0,0,0-.209-2.355l2.7-3.122.486.345a6.711,6.711,0,0,1-.112,4.185l-2.67,7.744s1.253,3.03,2.709,5.89a17.358,17.358,0,0,1-14.348.971A19.641,19.641,0,0,0,378.386,173.032Z" transform="translate(-344.494 -130.645)"/><path class="n" d="M403.07,164.365c-3.486-14.25-6.064-19-10.3-18.936-1.238,1.457-.893,5.943,1.058,8.652,0,0,4.37,9.191,5.054,12.459a46.314,46.314,0,0,1,1.257,8.948,1.8,1.8,0,0,1-.486,1.175,9.427,9.427,0,0,0-1.316,2.51c-.4.748-.845,1.029-.719,1.194a.971.971,0,0,0,1.311.1,4.977,4.977,0,0,0,.971-.971,9.9,9.9,0,0,1-.786,2.646c-.893,2.015-.675,3.044,2.044,2.326,1.7-.452,2.777-1.869,3.035-5.972a31.626,31.626,0,0,0,.044-4.535A74.983,74.983,0,0,0,403.07,164.365Z" transform="translate(-355.307 -126.163)"/></g></g><g transform="translate(1002.15 367.638)"><path class="d" d="M127.1,56.532a6.1,6.1,0,0,1,4.076,1.557l.355-.4a6.646,6.646,0,0,0-8.861,0l.355.4A6.1,6.1,0,0,1,127.1,56.532Z" transform="translate(-119.121 -55.468)"/><path class="d" d="M110.985,379.77a6.12,6.12,0,0,1-4.586-2.07l-.4.352a6.646,6.646,0,0,0,9.969,0l-.4-.352A6.119,6.119,0,0,1,110.985,379.77Z" transform="translate(-103.009 -366.478)"/><path class="d" d="M113.508,108.3a4.569,4.569,0,0,1,.062.754,4.5,4.5,0,0,1-.207,1.355,1.076,1.076,0,0,0-.359-.291,4.915,4.915,0,0,0-1.122-.4,2.659,2.659,0,0,0-2.979-4.354,1.2,1.2,0,0,0-1.915.522,1.2,1.2,0,0,0-1.3,1.639l-.048.025a.939.939,0,0,0-.617.847,1.55,1.55,0,0,1-.045.21,1.452,1.452,0,0,1-.084.186.955.955,0,0,0,0,1.066,1.45,1.45,0,0,1,.084.186,1.554,1.554,0,0,1,.045.21.939.939,0,0,0,.617.847,1.506,1.506,0,0,1,.184.106,1.487,1.487,0,0,1,.155.14.936.936,0,0,0,.994.327,1.065,1.065,0,0,1,.438,0l.047.007a.872.872,0,0,0-.107.261.673.673,0,0,0,.116.572.915.915,0,0,0,1.138.2,3.363,3.363,0,0,1,3.025,0l.046.021a4.518,4.518,0,1,1,.118-7.273,4.552,4.552,0,0,1,1.6,2.339l.511-.147a5.088,5.088,0,0,0-1.791-2.614A5,5,0,0,0,109.051,104a5.051,5.051,0,1,0,3.486,8.7.773.773,0,0,0,.226-.2.638.638,0,0,0,.068-.109,5.03,5.03,0,0,0,1.27-3.346,5.1,5.1,0,0,0-.07-.842Zm-.489,2.583a.16.16,0,0,1-.018.13.4.4,0,0,1-.478.053,3.9,3.9,0,0,0-2.685-.3h0a3.851,3.851,0,0,0-.812.3.4.4,0,0,1-.479-.053.16.16,0,0,1-.017-.129.466.466,0,0,1,.255-.292,4.429,4.429,0,0,1,3.983,0A.466.466,0,0,1,113.019,110.88Zm-.778-3.159a2.121,2.121,0,0,1-1.121,1.875,4.979,4.979,0,0,0-1.579.142.984.984,0,0,0,.108-.422,1.167,1.167,0,0,0-.163-.533,1.444,1.444,0,0,1-.084-.186.964.964,0,0,1-.028-.112,1.063,1.063,0,1,0-.324-.764v.012a1.618,1.618,0,0,0-.31-.193,1.511,1.511,0,0,1-.184-.106c-.017-.012-.034-.027-.052-.042a1.2,1.2,0,0,0,.716-1.6,2.1,2.1,0,0,1,.893-.2A2.129,2.129,0,0,1,112.241,107.721Zm-2.658,0a.532.532,0,1,1,.532.532A.532.532,0,0,1,109.583,107.721Zm-1.462-2.127a.665.665,0,1,1-.665.665A.665.665,0,0,1,108.121,105.594Zm-1.329.8a.669.669,0,0,1,.142.015,1.2,1.2,0,0,0,.5.829.665.665,0,1,1-.64-.844Zm.4,4.719a1.993,1.993,0,0,0-.3.028.444.444,0,0,1-.542-.179,1.887,1.887,0,0,0-.215-.192,1.917,1.917,0,0,0-.251-.148.448.448,0,0,1-.338-.464,1.96,1.96,0,0,0-.063-.286,1.851,1.851,0,0,0-.114-.261.461.461,0,0,1,0-.588,1.848,1.848,0,0,0,.114-.261,1.961,1.961,0,0,0,.063-.286.448.448,0,0,1,.338-.464c.038-.02.076-.039.114-.061a1.2,1.2,0,0,0,1.887-.411,1.727,1.727,0,0,1,.144.132,1.9,1.9,0,0,0,.215.192,1.921,1.921,0,0,0,.251.148.448.448,0,0,1,.338.464,1.96,1.96,0,0,0,.063.286,1.854,1.854,0,0,0,.114.261.461.461,0,0,1,0,.588,1.847,1.847,0,0,0-.114.261c-.009.028-.018.058-.025.09q-.168.07-.331.152a1,1,0,0,0-.534.65.752.752,0,0,0-.016.235.613.613,0,0,1-.2.151.768.768,0,0,1-.3-.011A1.992,1.992,0,0,0,107.19,111.111Zm4.676,1.122a3.9,3.9,0,0,0-3.5,0,.4.4,0,0,1-.479-.053.16.16,0,0,1-.017-.129.466.466,0,0,1,.255-.292c.118-.06.239-.114.362-.163a.994.994,0,0,0,.775-.058,3.324,3.324,0,0,1,.658-.249,4.435,4.435,0,0,1,.447,0,4.385,4.385,0,0,1,1.741.467.466.466,0,0,1,.255.292.218.218,0,0,1,0,.069q-.067.073-.138.143A.466.466,0,0,1,111.866,112.232Z" transform="translate(-101.076 -101.873)"/><path class="d" d="M402.658,40v2.658h-.8V40h-.532v2.658h-.8V40H400v4.386a.932.932,0,0,0,.774.917l-.24,7.928c0,.02,0,.04,0,.06a1.063,1.063,0,1,0,2.127,0c0-.02,0-.04,0-.06l-.055-1.808-.531.016.055,1.812s0,.005,0,.008,0,.022,0,.033a.532.532,0,1,1-1.063,0c0-.011,0-.022,0-.033s0-.005,0-.008l.24-7.935h.58l.169,5.591.531-.016-.169-5.588a.932.932,0,0,0,.774-.917V40Zm0,4.386a.4.4,0,0,1-.4.4H400.93a.4.4,0,0,1-.4-.4v-1.2h2.127Z" transform="translate(-387.24 -40)"/><path class="d" d="M18.408,45.009a3.137,3.137,0,0,0,.859-2.351c0-1.491-.717-2.658-1.633-2.658S16,41.168,16,42.658a3.231,3.231,0,0,0,.785,2.283L16.725,46.9l.531.016.05-1.654a1.07,1.07,0,0,0,.577.021l.241,7.964s0,.005,0,.008,0,.022,0,.033a.532.532,0,0,1-1.063,0c0-.011,0-.022,0-.033s0-.005,0-.008l.176-5.8-.531-.016-.176,5.8c0,.02,0,.04,0,.06a1.063,1.063,0,0,0,2.127,0c0-.02,0-.04,0-.06Zm-1.876-2.351c0-1.272.569-2.127,1.1-2.127s1.1.855,1.1,2.127-.569,2.127-1.1,2.127S16.532,43.931,16.532,42.658Z" transform="translate(-16 -40)"/><rect class="d" width="0.841" height="0.532" transform="translate(4.799 7.625) rotate(-71.566)"/><rect class="d" width="0.841" height="0.532" transform="matrix(0.949, -0.316, 0.316, 0.949, 5.764, 8.255)"/><rect class="d" width="0.532" height="0.958" transform="matrix(0.555, -0.832, 0.832, 0.555, 6.233, 7.133)"/></g><g transform="translate(1002.15 317.134)"><path class="d" d="M127.1,56.532a6.1,6.1,0,0,1,4.076,1.557l.355-.4a6.646,6.646,0,0,0-8.861,0l.355.4A6.1,6.1,0,0,1,127.1,56.532Z" transform="translate(-119.121 -55.468)"/><path class="d" d="M110.985,379.77a6.12,6.12,0,0,1-4.586-2.07l-.4.352a6.646,6.646,0,0,0,9.969,0l-.4-.352A6.119,6.119,0,0,1,110.985,379.77Z" transform="translate(-103.009 -366.478)"/><path class="d" d="M113.508,108.3a4.569,4.569,0,0,1,.062.754,4.5,4.5,0,0,1-.207,1.355,1.076,1.076,0,0,0-.359-.291,4.915,4.915,0,0,0-1.122-.4,2.659,2.659,0,0,0-2.979-4.354,1.2,1.2,0,0,0-1.915.522,1.2,1.2,0,0,0-1.3,1.639l-.048.025a.939.939,0,0,0-.617.847,1.55,1.55,0,0,1-.045.21,1.452,1.452,0,0,1-.084.186.955.955,0,0,0,0,1.066,1.45,1.45,0,0,1,.084.186,1.554,1.554,0,0,1,.045.21.939.939,0,0,0,.617.847,1.506,1.506,0,0,1,.184.106,1.487,1.487,0,0,1,.155.14.936.936,0,0,0,.994.327,1.065,1.065,0,0,1,.438,0l.047.007a.872.872,0,0,0-.107.261.673.673,0,0,0,.116.572.915.915,0,0,0,1.138.2,3.363,3.363,0,0,1,3.025,0l.046.021a4.518,4.518,0,1,1,.118-7.273,4.552,4.552,0,0,1,1.6,2.339l.511-.147a5.088,5.088,0,0,0-1.791-2.614A5,5,0,0,0,109.051,104a5.051,5.051,0,1,0,3.486,8.7.773.773,0,0,0,.226-.2.638.638,0,0,0,.068-.109,5.03,5.03,0,0,0,1.27-3.346,5.1,5.1,0,0,0-.07-.842Zm-.489,2.583a.16.16,0,0,1-.018.13.4.4,0,0,1-.478.053,3.9,3.9,0,0,0-2.685-.3h0a3.851,3.851,0,0,0-.812.3.4.4,0,0,1-.479-.053.16.16,0,0,1-.017-.129.466.466,0,0,1,.255-.292,4.429,4.429,0,0,1,3.983,0A.466.466,0,0,1,113.019,110.88Zm-.778-3.159a2.121,2.121,0,0,1-1.121,1.875,4.979,4.979,0,0,0-1.579.142.984.984,0,0,0,.108-.422,1.167,1.167,0,0,0-.163-.533,1.444,1.444,0,0,1-.084-.186.964.964,0,0,1-.028-.112,1.063,1.063,0,1,0-.324-.764v.012a1.618,1.618,0,0,0-.31-.193,1.511,1.511,0,0,1-.184-.106c-.017-.012-.034-.027-.052-.042a1.2,1.2,0,0,0,.716-1.6,2.1,2.1,0,0,1,.893-.2A2.129,2.129,0,0,1,112.241,107.721Zm-2.658,0a.532.532,0,1,1,.532.532A.532.532,0,0,1,109.583,107.721Zm-1.462-2.127a.665.665,0,1,1-.665.665A.665.665,0,0,1,108.121,105.594Zm-1.329.8a.669.669,0,0,1,.142.015,1.2,1.2,0,0,0,.5.829.665.665,0,1,1-.64-.844Zm.4,4.719a1.993,1.993,0,0,0-.3.028.444.444,0,0,1-.542-.179,1.887,1.887,0,0,0-.215-.192,1.917,1.917,0,0,0-.251-.148.448.448,0,0,1-.338-.464,1.96,1.96,0,0,0-.063-.286,1.851,1.851,0,0,0-.114-.261.461.461,0,0,1,0-.588,1.848,1.848,0,0,0,.114-.261,1.961,1.961,0,0,0,.063-.286.448.448,0,0,1,.338-.464c.038-.02.076-.039.114-.061a1.2,1.2,0,0,0,1.887-.411,1.727,1.727,0,0,1,.144.132,1.9,1.9,0,0,0,.215.192,1.921,1.921,0,0,0,.251.148.448.448,0,0,1,.338.464,1.96,1.96,0,0,0,.063.286,1.854,1.854,0,0,0,.114.261.461.461,0,0,1,0,.588,1.847,1.847,0,0,0-.114.261c-.009.028-.018.058-.025.09q-.168.07-.331.152a1,1,0,0,0-.534.65.752.752,0,0,0-.016.235.613.613,0,0,1-.2.151.768.768,0,0,1-.3-.011A1.992,1.992,0,0,0,107.19,111.111Zm4.676,1.122a3.9,3.9,0,0,0-3.5,0,.4.4,0,0,1-.479-.053.16.16,0,0,1-.017-.129.466.466,0,0,1,.255-.292c.118-.06.239-.114.362-.163a.994.994,0,0,0,.775-.058,3.324,3.324,0,0,1,.658-.249,4.435,4.435,0,0,1,.447,0,4.385,4.385,0,0,1,1.741.467.466.466,0,0,1,.255.292.218.218,0,0,1,0,.069q-.067.073-.138.143A.466.466,0,0,1,111.866,112.232Z" transform="translate(-101.076 -101.873)"/><path class="d" d="M402.658,40v2.658h-.8V40h-.532v2.658h-.8V40H400v4.386a.932.932,0,0,0,.774.917l-.24,7.928c0,.02,0,.04,0,.06a1.063,1.063,0,1,0,2.127,0c0-.02,0-.04,0-.06l-.055-1.808-.531.016.055,1.812s0,.005,0,.008,0,.022,0,.033a.532.532,0,1,1-1.063,0c0-.011,0-.022,0-.033s0-.005,0-.008l.24-7.935h.58l.169,5.591.531-.016-.169-5.588a.932.932,0,0,0,.774-.917V40Zm0,4.386a.4.4,0,0,1-.4.4H400.93a.4.4,0,0,1-.4-.4v-1.2h2.127Z" transform="translate(-387.24 -40)"/><path class="d" d="M18.408,45.009a3.137,3.137,0,0,0,.859-2.351c0-1.491-.717-2.658-1.633-2.658S16,41.168,16,42.658a3.231,3.231,0,0,0,.785,2.283L16.725,46.9l.531.016.05-1.654a1.07,1.07,0,0,0,.577.021l.241,7.964s0,.005,0,.008,0,.022,0,.033a.532.532,0,0,1-1.063,0c0-.011,0-.022,0-.033s0-.005,0-.008l.176-5.8-.531-.016-.176,5.8c0,.02,0,.04,0,.06a1.063,1.063,0,0,0,2.127,0c0-.02,0-.04,0-.06Zm-1.876-2.351c0-1.272.569-2.127,1.1-2.127s1.1.855,1.1,2.127-.569,2.127-1.1,2.127S16.532,43.931,16.532,42.658Z" transform="translate(-16 -40)"/><rect class="d" width="0.841" height="0.532" transform="translate(4.799 7.625) rotate(-71.566)"/><rect class="d" width="0.841" height="0.532" transform="matrix(0.949, -0.316, 0.316, 0.949, 5.764, 8.255)"/><rect class="d" width="0.532" height="0.958" transform="matrix(0.555, -0.832, 0.832, 0.555, 6.233, 7.133)"/></g><g transform="translate(1002.15 396.974)"><path class="d" d="M127.1,56.532a6.1,6.1,0,0,1,4.076,1.557l.355-.4a6.646,6.646,0,0,0-8.861,0l.355.4A6.1,6.1,0,0,1,127.1,56.532Z" transform="translate(-119.121 -55.468)"/><path class="d" d="M110.985,379.77a6.12,6.12,0,0,1-4.586-2.07l-.4.352a6.646,6.646,0,0,0,9.969,0l-.4-.352A6.119,6.119,0,0,1,110.985,379.77Z" transform="translate(-103.009 -366.478)"/><path class="d" d="M113.508,108.3a4.569,4.569,0,0,1,.062.754,4.5,4.5,0,0,1-.207,1.355,1.076,1.076,0,0,0-.359-.291,4.915,4.915,0,0,0-1.122-.4,2.659,2.659,0,0,0-2.979-4.354,1.2,1.2,0,0,0-1.915.522,1.2,1.2,0,0,0-1.3,1.639l-.048.025a.939.939,0,0,0-.617.847,1.55,1.55,0,0,1-.045.21,1.452,1.452,0,0,1-.084.186.955.955,0,0,0,0,1.066,1.45,1.45,0,0,1,.084.186,1.554,1.554,0,0,1,.045.21.939.939,0,0,0,.617.847,1.506,1.506,0,0,1,.184.106,1.487,1.487,0,0,1,.155.14.936.936,0,0,0,.994.327,1.065,1.065,0,0,1,.438,0l.047.007a.872.872,0,0,0-.107.261.673.673,0,0,0,.116.572.915.915,0,0,0,1.138.2,3.363,3.363,0,0,1,3.025,0l.046.021a4.518,4.518,0,1,1,.118-7.273,4.552,4.552,0,0,1,1.6,2.339l.511-.147a5.088,5.088,0,0,0-1.791-2.614A5,5,0,0,0,109.051,104a5.051,5.051,0,1,0,3.486,8.7.773.773,0,0,0,.226-.2.638.638,0,0,0,.068-.109,5.03,5.03,0,0,0,1.27-3.346,5.1,5.1,0,0,0-.07-.842Zm-.489,2.583a.16.16,0,0,1-.018.13.4.4,0,0,1-.478.053,3.9,3.9,0,0,0-2.685-.3h0a3.851,3.851,0,0,0-.812.3.4.4,0,0,1-.479-.053.16.16,0,0,1-.017-.129.466.466,0,0,1,.255-.292,4.429,4.429,0,0,1,3.983,0A.466.466,0,0,1,113.019,110.88Zm-.778-3.159a2.121,2.121,0,0,1-1.121,1.875,4.979,4.979,0,0,0-1.579.142.984.984,0,0,0,.108-.422,1.167,1.167,0,0,0-.163-.533,1.444,1.444,0,0,1-.084-.186.964.964,0,0,1-.028-.112,1.063,1.063,0,1,0-.324-.764v.012a1.618,1.618,0,0,0-.31-.193,1.511,1.511,0,0,1-.184-.106c-.017-.012-.034-.027-.052-.042a1.2,1.2,0,0,0,.716-1.6,2.1,2.1,0,0,1,.893-.2A2.129,2.129,0,0,1,112.241,107.721Zm-2.658,0a.532.532,0,1,1,.532.532A.532.532,0,0,1,109.583,107.721Zm-1.462-2.127a.665.665,0,1,1-.665.665A.665.665,0,0,1,108.121,105.594Zm-1.329.8a.669.669,0,0,1,.142.015,1.2,1.2,0,0,0,.5.829.665.665,0,1,1-.64-.844Zm.4,4.719a1.993,1.993,0,0,0-.3.028.444.444,0,0,1-.542-.179,1.887,1.887,0,0,0-.215-.192,1.917,1.917,0,0,0-.251-.148.448.448,0,0,1-.338-.464,1.96,1.96,0,0,0-.063-.286,1.851,1.851,0,0,0-.114-.261.461.461,0,0,1,0-.588,1.848,1.848,0,0,0,.114-.261,1.961,1.961,0,0,0,.063-.286.448.448,0,0,1,.338-.464c.038-.02.076-.039.114-.061a1.2,1.2,0,0,0,1.887-.411,1.727,1.727,0,0,1,.144.132,1.9,1.9,0,0,0,.215.192,1.921,1.921,0,0,0,.251.148.448.448,0,0,1,.338.464,1.96,1.96,0,0,0,.063.286,1.854,1.854,0,0,0,.114.261.461.461,0,0,1,0,.588,1.847,1.847,0,0,0-.114.261c-.009.028-.018.058-.025.09q-.168.07-.331.152a1,1,0,0,0-.534.65.752.752,0,0,0-.016.235.613.613,0,0,1-.2.151.768.768,0,0,1-.3-.011A1.992,1.992,0,0,0,107.19,111.111Zm4.676,1.122a3.9,3.9,0,0,0-3.5,0,.4.4,0,0,1-.479-.053.16.16,0,0,1-.017-.129.466.466,0,0,1,.255-.292c.118-.06.239-.114.362-.163a.994.994,0,0,0,.775-.058,3.324,3.324,0,0,1,.658-.249,4.435,4.435,0,0,1,.447,0,4.385,4.385,0,0,1,1.741.467.466.466,0,0,1,.255.292.218.218,0,0,1,0,.069q-.067.073-.138.143A.466.466,0,0,1,111.866,112.232Z" transform="translate(-101.076 -101.873)"/><path class="d" d="M402.658,40v2.658h-.8V40h-.532v2.658h-.8V40H400v4.386a.932.932,0,0,0,.774.917l-.24,7.928c0,.02,0,.04,0,.06a1.063,1.063,0,1,0,2.127,0c0-.02,0-.04,0-.06l-.055-1.808-.531.016.055,1.812s0,.005,0,.008,0,.022,0,.033a.532.532,0,1,1-1.063,0c0-.011,0-.022,0-.033s0-.005,0-.008l.24-7.935h.58l.169,5.591.531-.016-.169-5.588a.932.932,0,0,0,.774-.917V40Zm0,4.386a.4.4,0,0,1-.4.4H400.93a.4.4,0,0,1-.4-.4v-1.2h2.127Z" transform="translate(-387.24 -40)"/><path class="d" d="M18.408,45.009a3.137,3.137,0,0,0,.859-2.351c0-1.491-.717-2.658-1.633-2.658S16,41.168,16,42.658a3.231,3.231,0,0,0,.785,2.283L16.725,46.9l.531.016.05-1.654a1.07,1.07,0,0,0,.577.021l.241,7.964s0,.005,0,.008,0,.022,0,.033a.532.532,0,0,1-1.063,0c0-.011,0-.022,0-.033s0-.005,0-.008l.176-5.8-.531-.016-.176,5.8c0,.02,0,.04,0,.06a1.063,1.063,0,0,0,2.127,0c0-.02,0-.04,0-.06Zm-1.876-2.351c0-1.272.569-2.127,1.1-2.127s1.1.855,1.1,2.127-.569,2.127-1.1,2.127S16.532,43.931,16.532,42.658Z" transform="translate(-16 -40)"/><rect class="d" width="0.841" height="0.532" transform="translate(4.799 7.625) rotate(-71.566)"/><rect class="d" width="0.841" height="0.532" transform="matrix(0.949, -0.316, 0.316, 0.949, 5.764, 8.255)"/><rect class="d" width="0.532" height="0.958" transform="matrix(0.555, -0.832, 0.832, 0.555, 6.233, 7.133)"/></g></g></svg>