<svg xmlns="http://www.w3.org/2000/svg" width="42.789" height="44.216" viewBox="0 0 42.789 44.216"><defs><style>.a{fill:#ff6505;}</style></defs><g transform="translate(-16 -8)"><path class="a" d="M173.7,265.235v-8.522a.713.713,0,0,0-.713-.713c-4.356,0-4.966,7.473-4.99,7.791a.713.713,0,0,0,.392.691l1.032.516v.237l-.553,5.528A2.14,2.14,0,0,0,171,273.116h1.127a2.14,2.14,0,0,0,2.129-2.352Zm-4.23-1.807a15.653,15.653,0,0,1,.657-2.943c.548-1.613,1.268-2.594,2.147-2.929v7h-1.426a.713.713,0,0,0-.394-.638Zm3.182,8.026a.705.705,0,0,1-.529.235H171a.713.713,0,0,1-.71-.784l.492-4.921h1.562l.492,4.921a.7.7,0,0,1-.181.55Z" transform="translate(-138.45 -225.892)"/><path class="a" d="M58.076,8H52.371a.713.713,0,0,0-.713.713v.713H36.769a3.864,3.864,0,0,0-1.845.471l-6.982,3.808H19.566c-1.2,0-2.139,1.253-2.139,2.853a2.646,2.646,0,0,0,1.9,2.836L16.114,30.278l-.008.029a3.572,3.572,0,0,0-.106.865V51.5a.713.713,0,0,0,.713.713H48.805a.713.713,0,0,0,.713-.713V31.232a3.561,3.561,0,0,0-.145-1.007L46.4,20.123a3.858,3.858,0,0,0,3.819-3.565h1.437v1.426a.713.713,0,0,0,.713.713h5.705a.713.713,0,0,0,.713-.713V8.713A.713.713,0,0,0,58.076,8ZM18.853,16.558c0-.871.422-1.426.713-1.426H39.952L37.1,17.984H19.566C19.275,17.984,18.853,17.429,18.853,16.558Zm22.214,13.75a3.573,3.573,0,0,0-.106.865V50.789H17.426V31.172a2.146,2.146,0,0,1,.061-.505l3.325-11.256h15A3.142,3.142,0,0,0,40.436,23.5l3.431-2.669-2.792,9.451Zm4.173,18.638,1.844,1.844H43.4Zm2.766-18.317a2.135,2.135,0,0,1,.087.6V49.781l-2.139-2.139V32.247a.713.713,0,1,0-1.426,0V47.642l-2.139,2.139V31.172a2.146,2.146,0,0,1,.061-.505l2.79-9.447Zm3.653-15.5H49.944a1.14,1.14,0,0,0-1.139,1.139A2.43,2.43,0,0,1,46.378,18.7H44.625a1.006,1.006,0,0,0-.614.211L39.56,22.37A1.714,1.714,0,0,1,37.3,19.805l4.882-4.882a.713.713,0,0,0-.5-1.218H30.921l4.686-2.556a2.434,2.434,0,0,1,1.162-.3H51.658Zm5.705,2.139H53.084V9.426h4.279Z" transform="translate(0)"/><path class="a" d="M87.132,256.713a.713.713,0,1,0-1.426,0v2.139H84.279v-2.139a.713.713,0,1,0-1.426,0v2.139H81.426v-2.139a.713.713,0,1,0-1.426,0v2.853h0a.711.711,0,0,0,.074.319l1.339,2.678-.59,8.261a2.139,2.139,0,0,0,2.134,2.292h1.215a2.139,2.139,0,0,0,2.134-2.292l-.59-8.261,1.339-2.678a.711.711,0,0,0,.074-.319h0Zm-1.867,3.566-.713,1.426H82.58l-.713-1.426ZM84.7,271.462a.706.706,0,0,1-.522.227H82.958a.713.713,0,0,1-.711-.764l.557-7.794h1.524l.557,7.794A.706.706,0,0,1,84.7,271.462Z" transform="translate(-58.295 -225.892)"/></g></svg>