<svg xmlns="http://www.w3.org/2000/svg" xmlns:xlink="http://www.w3.org/1999/xlink" version="1.1" x="0px" y="0px" viewBox="0 0 100 125" style="enable-background:new 0 0 100 100;" xml:space="preserve"><g><path d="M11,73.2v10.9c0,2.7,2.1,4.9,4.8,4.9h70.4c2.6,0,4.8-2.2,4.8-4.9V73.2c0-1.7-0.9-3.2-2.3-4.1l0,0   C77.6,62,64.5,58.2,51.3,58.2h-0.5c-13.3,0-26.3,3.8-37.5,10.9C11.9,70,11,71.5,11,73.2z"/><path d="M52.8,50C59.6,50,65,44.6,65,37.8V24.2C65,17.4,59.6,12,52.8,12h-3.7C42.4,12,37,17.4,37,24.2v13.7   C37,44.6,42.4,50,49.2,50H52.8z"/></g><text x="0" y="115" fill="#000000" font-size="5px" font-weight="bold" font-family="'Helvetica Neue', Helvetica, Arial-Unicode, Arial, Sans-serif">Created by Trident</text><text x="0" y="120" fill="#000000" font-size="5px" font-weight="bold" font-family="'Helvetica Neue', Helvetica, Arial-Unicode, Arial, Sans-serif">from the Noun Project</text></svg>